<mxfile host="app.diagrams.net" modified="2023-10-02T12:02:23.519Z" agent="Mozilla/5.0 (Windows NT 10.0; Win64; x64) AppleWebKit/537.36 (KHTML, like Gecko) Chrome/117.0.0.0 Safari/537.36" version="22.0.0" etag="tEcQDMYS0BXhOrF6BsqY" type="github">
  <diagram name="Page-1" id="UAuCBKq5VFrk-jm5fiol">
    <mxGraphModel>
      <root>
        <mxCell id="0" />
        <mxCell id="1" parent="0" />
      </root>
    </mxGraphModel>
  </diagram>
</mxfile>
